REM DIRINDEX 1\2,1\3,1\4,1\6,1\5\7,1\5\8
REM DIRNAME cjc114,folder01,folder02,folder03,folder04,folder05,folder06,folder07
TITLE ""
FILE "DB4500_5th_2A_38.mp3" MP3
  TRACK 01 AUDIO
    TITLE "2:cjc114_1227"
    INDEX 01 00:00:00
  TRACK 02 AUDIO
    TITLE "0:"
    INDEX 01 00:01:21
  TRACK 03 AUDIO
    TITLE "3:cjc114_1228"
    INDEX 01 00:01:48
  TRACK 04 AUDIO
    TITLE "0:"
    INDEX 01 00:02:63
  TRACK 05 AUDIO
    TITLE "4:cjc114_1229"
    INDEX 01 00:03:15
  TRACK 06 AUDIO
    TITLE "0:"
    INDEX 01 00:06:18
  TRACK 07 AUDIO
    TITLE "2:cjc114_1230"
    INDEX 01 00:06:71
  TRACK 08 AUDIO
    TITLE "0:"
    INDEX 01 00:07:70
  TRACK 09 AUDIO
    TITLE "3:cjc114_1231"
    INDEX 01 00:08:23
  TRACK 10 AUDIO
    TITLE "0:"
    INDEX 01 00:09:36
  TRACK 11 AUDIO
    TITLE "4:cjc114_1232"
    INDEX 01 00:09:63
  TRACK 12 AUDIO
    TITLE "0:"
    INDEX 01 00:12:20
  TRACK 13 AUDIO
    TITLE "2:cjc114_1233"
    INDEX 01 00:12:73
  TRACK 14 AUDIO
    TITLE "0:"
    INDEX 01 00:14:02
  TRACK 15 AUDIO
    TITLE "3:cjc114_1234"
    INDEX 01 00:14:29
  TRACK 16 AUDIO
    TITLE "0:"
    INDEX 01 00:15:44
  TRACK 17 AUDIO
    TITLE "4:cjc114_1235"
    INDEX 01 00:15:70
  TRACK 18 AUDIO
    TITLE "0:"
    INDEX 01 00:18:48
  TRACK 19 AUDIO
    TITLE "2:cjc114_1236"
    INDEX 01 00:19:28
  TRACK 20 AUDIO
    TITLE "0:"
    INDEX 01 00:20:39
  TRACK 21 AUDIO
    TITLE "3:cjc114_1237"
    INDEX 01 00:20:67
  TRACK 22 AUDIO
    TITLE "0:"
    INDEX 01 00:22:27
  TRACK 23 AUDIO
    TITLE "4:cjc114_1238"
    INDEX 01 00:22:54
  TRACK 24 AUDIO
    TITLE "0:"
    INDEX 01 00:26:11
  TRACK 25 AUDIO
    TITLE "2:cjc114_1239"
    INDEX 01 00:26:66
  TRACK 26 AUDIO
    TITLE "0:"
    INDEX 01 00:28:08
  TRACK 27 AUDIO
    TITLE "3:cjc114_1240"
    INDEX 01 00:28:35
  TRACK 28 AUDIO
    TITLE "0:"
    INDEX 01 00:29:40
  TRACK 29 AUDIO
    TITLE "4:cjc114_1241"
    INDEX 01 00:30:01
  TRACK 30 AUDIO
    TITLE "0:"
    INDEX 01 00:34:14
  TRACK 31 AUDIO
    TITLE "2:cjc114_1242"
    INDEX 01 00:34:71
  TRACK 32 AUDIO
    TITLE "0:"
    INDEX 01 00:36:11
  TRACK 33 AUDIO
    TITLE "3:cjc114_1243"
    INDEX 01 00:36:40
  TRACK 34 AUDIO
    TITLE "0:"
    INDEX 01 00:38:02
  TRACK 35 AUDIO
    TITLE "4:cjc114_1244"
    INDEX 01 00:38:24
  TRACK 36 AUDIO
    TITLE "0:"
    INDEX 01 00:42:70
  TRACK 37 AUDIO
    TITLE "2:cjc114_1245"
    INDEX 01 00:43:48
  TRACK 38 AUDIO
    TITLE "0:"
    INDEX 01 00:44:61
  TRACK 39 AUDIO
    TITLE "3:cjc114_1246"
    INDEX 01 00:45:16
  TRACK 40 AUDIO
    TITLE "0:"
    INDEX 01 00:46:43
  TRACK 41 AUDIO
    TITLE "4:cjc114_1247"
    INDEX 01 00:46:70
  TRACK 42 AUDIO
    TITLE "0:"
    INDEX 01 00:50:56
  TRACK 43 AUDIO
    TITLE "2:cjc114_1248"
    INDEX 01 00:51:34
  TRACK 44 AUDIO
    TITLE "0:"
    INDEX 01 00:52:37
  TRACK 45 AUDIO
    TITLE "3:cjc114_1249"
    INDEX 01 00:52:65
  TRACK 46 AUDIO
    TITLE "0:"
    INDEX 01 00:54:30
  TRACK 47 AUDIO
    TITLE "4:cjc114_1250"
    INDEX 01 00:54:60
  TRACK 48 AUDIO
    TITLE "0:"
    INDEX 01 00:57:56
  TRACK 49 AUDIO
    TITLE "2:cjc114_1251"
    INDEX 01 00:58:36
  TRACK 50 AUDIO
    TITLE "0:"
    INDEX 01 00:59:47
  TRACK 51 AUDIO
    TITLE "3:cjc114_1252"
    INDEX 01 01:00:00
  TRACK 52 AUDIO
    TITLE "0:"
    INDEX 01 01:01:38
  TRACK 53 AUDIO
    TITLE "4:cjc114_1253"
    INDEX 01 01:01:66
  TRACK 54 AUDIO
    TITLE "0:"
    INDEX 01 01:05:03
  TRACK 55 AUDIO
    TITLE "2:cjc114_1254"
    INDEX 01 01:05:56
  TRACK 56 AUDIO
    TITLE "0:"
    INDEX 01 01:06:71
  TRACK 57 AUDIO
    TITLE "3:cjc114_1255"
    INDEX 01 01:07:25
  TRACK 58 AUDIO
    TITLE "0:"
    INDEX 01 01:08:68
  TRACK 59 AUDIO
    TITLE "4:cjc114_1256"
    INDEX 01 01:09:20
  TRACK 60 AUDIO
    TITLE "0:"
    INDEX 01 01:13:38
  TRACK 61 AUDIO
    TITLE "2:cjc114_1257"
    INDEX 01 01:14:16
  TRACK 62 AUDIO
    TITLE "0:"
    INDEX 01 01:15:29
  TRACK 63 AUDIO
    TITLE "3:cjc114_1258"
    INDEX 01 01:15:56
  TRACK 64 AUDIO
    TITLE "0:"
    INDEX 01 01:17:16
  TRACK 65 AUDIO
    TITLE "4:cjc114_1259"
    INDEX 01 01:17:43
  TRACK 66 AUDIO
    TITLE "0:"
    INDEX 01 01:20:55
